<svg width="13" height="15" viewBox="0 0 13 15" fill="none" xmlns="http://www.w3.org/2000/svg">
<path d="M11.6071 6.5625H10.9107V4.45312C10.9107 1.99805 8.9317 0 6.5 0C4.0683 0 2.08929 1.99805 2.08929 4.45312V6.5625H1.39286C0.623884 6.5625 0 7.19238 0 7.96875V13.5938C0 14.3701 0.623884 15 1.39286 15H11.6071C12.3761 15 13 14.3701 13 13.5938V7.96875C13 7.19238 12.3761 6.5625 11.6071 6.5625ZM8.58929 6.5625H4.41071V4.45312C4.41071 3.29004 5.34799 2.34375 6.5 2.34375C7.65201 2.34375 8.58929 3.29004 8.58929 4.45312V6.5625Z" fill="#E0E0E0"/>
</svg>
