<svg width="19" height="15" viewBox="0 0 19 15" fill="none" xmlns="http://www.w3.org/2000/svg">
<path d="M9.37494 11.7188C7.15277 11.7188 5.35394 9.99881 5.18841 7.81912L2.11517 5.44402C1.71117 5.95086 1.33939 6.4867 1.03939 7.07264C0.972371 7.20521 0.937453 7.35168 0.937453 7.50022C0.937453 7.64877 0.972371 7.79524 1.03939 7.92781C2.62816 11.0277 5.77347 13.1251 9.37494 13.1251C10.1633 13.1251 10.9239 13.0079 11.6569 12.8186L10.1367 11.6424C9.88559 11.6909 9.63063 11.7165 9.37494 11.7188ZM18.5689 13.421L15.3301 10.9179C16.314 10.0887 17.1231 9.07223 17.7105 7.92752C17.7775 7.79495 17.8124 7.64848 17.8124 7.49993C17.8124 7.35138 17.7775 7.20491 17.7105 7.07234C16.1217 3.97244 12.9764 1.87508 9.37494 1.87508C7.86659 1.8769 6.38273 2.25663 5.05892 2.97957L1.33177 0.0988074C1.28317 0.0609873 1.22759 0.0331151 1.16821 0.0167835C1.10883 0.00045184 1.04682 -0.0040191 0.985711 0.00362614C0.924603 0.0112714 0.865601 0.030883 0.812076 0.0613402C0.758551 0.0917974 0.711552 0.132503 0.673765 0.181132L0.0986671 0.921464C0.0223776 1.0196 -0.0118072 1.14403 0.00363109 1.26737C0.0190694 1.39071 0.0828666 1.50287 0.180991 1.57918L17.4181 14.9013C17.4667 14.9392 17.5223 14.967 17.5817 14.9834C17.641 14.9997 17.7031 15.0042 17.7642 14.9965C17.8253 14.9889 17.8843 14.9693 17.9378 14.9388C17.9913 14.9084 18.0383 14.8677 18.0761 14.819L18.6515 14.0787C18.7278 13.9805 18.7619 13.8561 18.7464 13.7327C18.7309 13.6094 18.6671 13.4972 18.5689 13.421ZM13.1865 9.26082L12.0351 8.37078C12.1321 8.09055 12.1835 7.79659 12.1874 7.50008C12.1932 7.06597 12.097 6.63658 11.9066 6.24639C11.7163 5.8562 11.4371 5.51608 11.0915 5.25336C10.7459 4.99065 10.3434 4.81265 9.91654 4.73367C9.48964 4.65469 9.05017 4.67694 8.63343 4.79861C8.8101 5.038 8.90566 5.32756 8.90619 5.62508C8.90182 5.72408 8.88669 5.82231 8.86107 5.91805L6.70453 4.25135C7.45364 3.62533 8.39868 3.28205 9.37494 3.28133C9.92904 3.28102 10.4778 3.38993 10.9897 3.60183C11.5017 3.81374 11.9669 4.12447 12.3587 4.51628C12.7505 4.90809 13.0613 5.37329 13.2732 5.88527C13.4851 6.39725 13.594 6.94598 13.5937 7.50008C13.5937 8.13377 13.4387 8.72439 13.1865 9.26111V9.26082Z" fill="#888888"/>
</svg>
