<svg xmlns="http://www.w3.org/2000/svg">
    <symbol id="donate-solid" width="16" height="16" viewBox="0 0 16 16">
        <g>
            <path d="M8 13C11.5906 13 14.5 10.0906 14.5 6.5C14.5 2.90937 11.5906 0 8 0C4.40938 0 1.5 2.90937 1.5 6.5C1.5 10.0906 4.40938 13 8 13ZM7.30625 3.04375V2.51875C7.30625 2.23125 7.5375 2 7.825 2H8.17188C8.45938 2 8.69063 2.23125 8.69063 2.51875V3.05C9.175 3.075 9.64375 3.24062 10.0344 3.53125C10.2094 3.65937 10.2281 3.91563 10.0719 4.06563L9.5625 4.55C9.44375 4.66563 9.26562 4.66875 9.125 4.58125C8.95625 4.475 8.76875 4.42188 8.56875 4.42188H7.35313C7.07188 4.42188 6.84375 4.67812 6.84375 4.99375C6.84375 5.25 7 5.47812 7.22188 5.54375L9.16875 6.12813C9.97188 6.36875 10.5344 7.14063 10.5344 8.00625C10.5344 9.06875 9.70938 9.92813 8.6875 9.95625V10.4812C8.6875 10.7688 8.45625 11 8.16875 11H7.82188C7.53438 11 7.30312 10.7688 7.30312 10.4812V9.95C6.81875 9.925 6.35 9.75937 5.95937 9.46875C5.78437 9.34062 5.76562 9.08437 5.92188 8.93437L6.43125 8.45C6.55 8.33437 6.72813 8.33125 6.86875 8.41875C7.0375 8.525 7.225 8.57812 7.425 8.57812H8.64062C8.92188 8.57812 9.15 8.32188 9.15 8.00625C9.15 7.75 8.99375 7.52188 8.77188 7.45625L6.825 6.87187C6.02187 6.63125 5.45937 5.85938 5.45937 4.99375C5.4625 3.93125 6.28438 3.07188 7.30625 3.04375ZM15 11H13.9844C13.3719 11.8125 12.5906 12.4906 11.7031 13H13.6969C13.8625 13 13.9969 13.1125 13.9969 13.25V13.75C13.9969 13.8875 13.8625 14 13.6969 14H2.3C2.13437 14 2 13.8875 2 13.75V13.25C2 13.1125 2.13437 13 2.3 13H4.29375C3.40625 12.4906 2.62813 11.8125 2.0125 11H1C0.446875 11 0 11.4469 0 12V15C0 15.5531 0.446875 16 1 16H15C15.5531 16 16 15.5531 16 15V12C16 11.4469 15.5531 11 15 11Z"/>
        </g>
    </symbol>

    <symbol id="envelope-solid" width="16" height="16" viewBox="0 0 16 16">
        <g>
            <path d="M15.6969 5.9625C15.8187 5.86563 16 5.95625 16 6.10938V12.5C16 13.3281 15.3281 14 14.5 14H1.5C0.671875 14 0 13.3281 0 12.5V6.1125C0 5.95625 0.178125 5.86875 0.303125 5.96562C1.00312 6.50937 1.93125 7.2 5.11875 9.51562C5.77813 9.99687 6.89062 11.0094 8 11.0031C9.11563 11.0125 10.25 9.97813 10.8844 9.51562C14.0719 7.2 14.9969 6.50625 15.6969 5.9625ZM8 10C8.725 10.0125 9.76875 9.0875 10.2937 8.70625C14.4406 5.69688 14.7562 5.43437 15.7125 4.68437C15.8937 4.54375 16 4.325 16 4.09375V3.5C16 2.67188 15.3281 2 14.5 2H1.5C0.671875 2 0 2.67188 0 3.5V4.09375C0 4.325 0.10625 4.54062 0.2875 4.68437C1.24375 5.43125 1.55938 5.69688 5.70625 8.70625C6.23125 9.0875 7.275 10.0125 8 10Z"/>

        </g>
    </symbol>

    <symbol id="envelope-solid-gr" width="15" height="15" viewBox="0 0 15 15" fill="none">
        <g>
            <path d="M14.7158 5.58984C14.8301 5.49902 15 5.58398 15 5.72754V11.7188C15 12.4951 14.3701 13.125 13.5938 13.125H1.40625C0.629883 13.125 0 12.4951 0 11.7188V5.73047C0 5.58398 0.166992 5.50195 0.28418 5.59277C0.94043 6.10254 1.81055 6.75 4.79883 8.9209C5.41699 9.37207 6.45996 10.3213 7.5 10.3154C8.5459 10.3242 9.60938 9.35449 10.2041 8.9209C13.1924 6.75 14.0596 6.09961 14.7158 5.58984ZM7.5 9.375C8.17969 9.38672 9.1582 8.51953 9.65039 8.16211C13.5381 5.34082 13.834 5.09473 14.7305 4.3916C14.9004 4.25977 15 4.05469 15 3.83789V3.28125C15 2.50488 14.3701 1.875 13.5938 1.875H1.40625C0.629883 1.875 0 2.50488 0 3.28125V3.83789C0 4.05469 0.0996094 4.25684 0.269531 4.3916C1.16602 5.0918 1.46191 5.34082 5.34961 8.16211C5.8418 8.51953 6.82031 9.38672 7.5 9.375Z" fill="#E0E0E0"/>

        </g>
    </symbol>

    <symbol id="lock-solid-gr" width="13" height="15" viewBox="0 0 13 15" fill="none">
        <g>
            <path d="M11.6071 6.5625H10.9107V4.45312C10.9107 1.99805 8.9317 0 6.5 0C4.0683 0 2.08929 1.99805 2.08929 4.45312V6.5625H1.39286C0.623884 6.5625 0 7.19238 0 7.96875V13.5938C0 14.3701 0.623884 15 1.39286 15H11.6071C12.3761 15 13 14.3701 13 13.5938V7.96875C13 7.19238 12.3761 6.5625 11.6071 6.5625ZM8.58929 6.5625H4.41071V4.45312C4.41071 3.29004 5.34799 2.34375 6.5 2.34375C7.65201 2.34375 8.58929 3.29004 8.58929 4.45312V6.5625Z" fill="#E0E0E0"/>

        </g>
    </symbol>

    <symbol id="no-view" width="19" height="15" viewBox="0 0 19 15" fill="none">
        <g>
            <path d="M9.37494 11.7188C7.15277 11.7188 5.35394 9.99881 5.18841 7.81912L2.11517 5.44402C1.71117 5.95086 1.33939 6.4867 1.03939 7.07264C0.972371 7.20521 0.937453 7.35168 0.937453 7.50022C0.937453 7.64877 0.972371 7.79524 1.03939 7.92781C2.62816 11.0277 5.77347 13.1251 9.37494 13.1251C10.1633 13.1251 10.9239 13.0079 11.6569 12.8186L10.1367 11.6424C9.88559 11.6909 9.63063 11.7165 9.37494 11.7188ZM18.5689 13.421L15.3301 10.9179C16.314 10.0887 17.1231 9.07223 17.7105 7.92752C17.7775 7.79495 17.8124 7.64848 17.8124 7.49993C17.8124 7.35138 17.7775 7.20491 17.7105 7.07234C16.1217 3.97244 12.9764 1.87508 9.37494 1.87508C7.86659 1.8769 6.38273 2.25663 5.05892 2.97957L1.33177 0.0988074C1.28317 0.0609873 1.22759 0.0331151 1.16821 0.0167835C1.10883 0.00045184 1.04682 -0.0040191 0.985711 0.00362614C0.924603 0.0112714 0.865601 0.030883 0.812076 0.0613402C0.758551 0.0917974 0.711552 0.132503 0.673765 0.181132L0.0986671 0.921464C0.0223776 1.0196 -0.0118072 1.14403 0.00363109 1.26737C0.0190694 1.39071 0.0828666 1.50287 0.180991 1.57918L17.4181 14.9013C17.4667 14.9392 17.5223 14.967 17.5817 14.9834C17.641 14.9997 17.7031 15.0042 17.7642 14.9965C17.8253 14.9889 17.8843 14.9693 17.9378 14.9388C17.9913 14.9084 18.0383 14.8677 18.0761 14.819L18.6515 14.0787C18.7278 13.9805 18.7619 13.8561 18.7464 13.7327C18.7309 13.6094 18.6671 13.4972 18.5689 13.421ZM13.1865 9.26082L12.0351 8.37078C12.1321 8.09055 12.1835 7.79659 12.1874 7.50008C12.1932 7.06597 12.097 6.63658 11.9066 6.24639C11.7163 5.8562 11.4371 5.51608 11.0915 5.25336C10.7459 4.99065 10.3434 4.81265 9.91654 4.73367C9.48964 4.65469 9.05017 4.67694 8.63343 4.79861C8.8101 5.038 8.90566 5.32756 8.90619 5.62508C8.90182 5.72408 8.88669 5.82231 8.86107 5.91805L6.70453 4.25135C7.45364 3.62533 8.39868 3.28205 9.37494 3.28133C9.92904 3.28102 10.4778 3.38993 10.9897 3.60183C11.5017 3.81374 11.9669 4.12447 12.3587 4.51628C12.7505 4.90809 13.0613 5.37329 13.2732 5.88527C13.4851 6.39725 13.594 6.94598 13.5937 7.50008C13.5937 8.13377 13.4387 8.72439 13.1865 9.26111V9.26082Z" fill="#888888"/>

        </g>
    </symbol>

    <symbol id="view" width="19" height="15" viewBox="0 0 19 15" fill="none">
        <g clip-path="url(#clip0)">
            <path d="M17.773 7.07227C16.1843 3.97236 13.0389 1.875 9.43748 1.875C5.83602 1.875 2.68983 3.97383 1.10194 7.07256C1.03492 7.20513 1 7.3516 1 7.50015C1 7.64869 1.03492 7.79516 1.10194 7.92773C2.69071 11.0276 5.83602 13.125 9.43748 13.125C13.0389 13.125 16.1851 11.0262 17.773 7.92744C17.84 7.79487 17.875 7.6484 17.875 7.49985C17.875 7.35131 17.84 7.20484 17.773 7.07227ZM9.43748 11.7188C8.60309 11.7188 7.78744 11.4713 7.09367 11.0078C6.3999 10.5442 5.85917 9.88532 5.53987 9.11445C5.22056 8.34357 5.13701 7.49532 5.2998 6.67696C5.46258 5.85861 5.86437 5.1069 6.45438 4.51689C7.04438 3.92689 7.79609 3.52509 8.61445 3.36231C9.4328 3.19953 10.2811 3.28308 11.0519 3.60238C11.8228 3.92169 12.4817 4.46242 12.9452 5.15619C13.4088 5.84996 13.6562 6.66561 13.6562 7.5C13.6565 8.05409 13.5476 8.6028 13.3357 9.11477C13.1237 9.62673 12.813 10.0919 12.4212 10.4837C12.0294 10.8755 11.5642 11.1862 11.0522 11.3982C10.5403 11.6101 9.99157 11.719 9.43748 11.7188ZM9.43748 4.6875C9.18645 4.69101 8.93703 4.72836 8.69598 4.79853C8.89468 5.06856 8.99003 5.40085 8.96474 5.73514C8.93945 6.06943 8.7952 6.3836 8.55814 6.62065C8.32108 6.85771 8.00692 7.00197 7.67262 7.02725C7.33833 7.05254 7.00604 6.95719 6.73602 6.7585C6.58226 7.32498 6.61001 7.92541 6.81538 8.47529C7.02074 9.02517 7.39338 9.49681 7.88083 9.82382C8.36828 10.1508 8.946 10.3167 9.53269 10.2982C10.1194 10.2797 10.6855 10.0776 11.1513 9.7205C11.6172 9.36338 11.9593 8.86916 12.1295 8.30742C12.2998 7.74567 12.2896 7.14468 12.1004 6.58904C11.9112 6.03339 11.5525 5.55107 11.0748 5.20995C10.5971 4.86884 10.0245 4.68612 9.43748 4.6875Z" fill="#3D3D3E"/>
        </g>
        <defs>
            <clipPath id="clip0">
                <rect width="16.875" height="15" fill="white" transform="translate(1)"/>
            </clipPath>
        </defs>
    </symbol>

    <symbol id="telegram" width="16" height="16" viewBox="0 0 16 16">
        <g>
            <path d="M8 0C3.58065 0 0 3.58065 0 8C0 12.4194 3.58065 16 8 16C12.4194 16 16 12.4194 16 8C16 3.58065 12.4194 0 8 0ZM11.929 5.48064L10.6161 11.6677C10.5194 12.1065 10.2581 12.2129 9.89355 12.0065L7.89355 10.5323L6.92903 11.4613C6.82258 11.5677 6.73226 11.6581 6.52581 11.6581L6.66774 9.62258L10.3742 6.27419C10.5355 6.13226 10.3387 6.05161 10.1258 6.19355L5.54516 9.07742L3.57097 8.46129C3.14194 8.32581 3.13226 8.03226 3.66129 7.82581L11.3742 4.85161C11.7323 4.72258 12.0452 4.93871 11.929 5.48064Z"/>

        </g>
    </symbol>

    <symbol id="user-solid-gr" width="13" height="15" viewBox="0 0 13 15" fill="none">
        <g>
            <path d="M6.5 7.5C8.55156 7.5 10.2143 5.82129 10.2143 3.75C10.2143 1.67871 8.55156 0 6.5 0C4.44844 0 2.78571 1.67871 2.78571 3.75C2.78571 5.82129 4.44844 7.5 6.5 7.5ZM9.1 8.4375H8.6154C7.9712 8.73633 7.25446 8.90625 6.5 8.90625C5.74554 8.90625 5.0317 8.73633 4.3846 8.4375H3.9C1.74687 8.4375 0 10.2012 0 12.375V13.5938C0 14.3701 0.623884 15 1.39286 15H11.6071C12.3761 15 13 14.3701 13 13.5938V12.375C13 10.2012 11.2531 8.4375 9.1 8.4375Z" fill="#E0E0E0"/>

        </g>
    </symbol>
</svg>