<svg width="19" height="15" viewBox="0 0 19 15" fill="none" xmlns="http://www.w3.org/2000/svg">
<g clip-path="url(#clip0)">
<path d="M17.773 7.07227C16.1843 3.97236 13.0389 1.875 9.43748 1.875C5.83602 1.875 2.68983 3.97383 1.10194 7.07256C1.03492 7.20513 1 7.3516 1 7.50015C1 7.64869 1.03492 7.79516 1.10194 7.92773C2.69071 11.0276 5.83602 13.125 9.43748 13.125C13.0389 13.125 16.1851 11.0262 17.773 7.92744C17.84 7.79487 17.875 7.6484 17.875 7.49985C17.875 7.35131 17.84 7.20484 17.773 7.07227ZM9.43748 11.7188C8.60309 11.7188 7.78744 11.4713 7.09367 11.0078C6.3999 10.5442 5.85917 9.88532 5.53987 9.11445C5.22056 8.34357 5.13701 7.49532 5.2998 6.67696C5.46258 5.85861 5.86437 5.1069 6.45438 4.51689C7.04438 3.92689 7.79609 3.52509 8.61445 3.36231C9.4328 3.19953 10.2811 3.28308 11.0519 3.60238C11.8228 3.92169 12.4817 4.46242 12.9452 5.15619C13.4088 5.84996 13.6562 6.66561 13.6562 7.5C13.6565 8.05409 13.5476 8.6028 13.3357 9.11477C13.1237 9.62673 12.813 10.0919 12.4212 10.4837C12.0294 10.8755 11.5642 11.1862 11.0522 11.3982C10.5403 11.6101 9.99157 11.719 9.43748 11.7188ZM9.43748 4.6875C9.18645 4.69101 8.93703 4.72836 8.69598 4.79853C8.89468 5.06856 8.99003 5.40085 8.96474 5.73514C8.93945 6.06943 8.7952 6.3836 8.55814 6.62065C8.32108 6.85771 8.00692 7.00197 7.67262 7.02725C7.33833 7.05254 7.00604 6.95719 6.73602 6.7585C6.58226 7.32498 6.61001 7.92541 6.81538 8.47529C7.02074 9.02517 7.39338 9.49681 7.88083 9.82382C8.36828 10.1508 8.946 10.3167 9.53269 10.2982C10.1194 10.2797 10.6855 10.0776 11.1513 9.7205C11.6172 9.36338 11.9593 8.86916 12.1295 8.30742C12.2998 7.74567 12.2896 7.14468 12.1004 6.58904C11.9112 6.03339 11.5525 5.55107 11.0748 5.20995C10.5971 4.86884 10.0245 4.68612 9.43748 4.6875Z" fill="#3D3D3E"/>
</g>
<defs>
<clipPath id="clip0">
<rect width="16.875" height="15" fill="white" transform="translate(1)"/>
</clipPath>
</defs>
</svg>
